<svg xmlns="http://www.w3.org/2000/svg" viewBox="0 0 624.5 194"><path d="M378 153.5c-5.1 0-14.8-3.2-14.8-17.3 0-9 5.5-16.3 14.2-16.3 9.7 0 15 6.2 15 16.9.1 14.6-10.1 16.7-14.4 16.7m14.7-36.7h-.2c-2.8-6.3-9.5-10.8-18.3-10.8-16.6 0-28 13.8-28 30.2 0 19 12.6 30.5 27.3 30.5 8.3 0 15.1-2.7 18.9-10.8l.2.2-.5 10c-.6 11.7-9 14.1-14.7 14.1-7.9 0-10.7-3-12.1-7.4h-16.9c2.2 12.3 11.6 19.9 28.5 19.9 18.7 0 31.4-9.9 31.4-27.6v-57.6h-15.7v9.3zM372.2 40c7.9 0 12.2 6.8 12.8 12.5h-26.4c.9-6.6 5.1-12.5 13.6-12.5m-.8 49.2c13.8 0 24.5-6.3 28.5-18.2L384 69.7c-2.3 4.6-6.7 6.9-11.7 6.9-8.8 0-13-6.8-13.7-13.7h42.8v-4.6c0-18.9-12.3-31-30-31s-30 12.1-30 31c.1 18.8 12.4 30.9 30 30.9M320.3 106c-6.6 0-12.4 2.2-17.3 9.2h-.2v-7.6H287v58.5h16.4v-33.3c0-8 4.1-13.7 10.7-13.7 5.1 0 10.3 2.8 10.3 11.3v35.7h16.4v-39.7c0-11.3-6.4-20.4-20.5-20.4m1.2-18.4l22-58.5h-18l-12.4 38.7h-.2l-12.4-38.7h-18l22 58.5h17zM534.6 106c-6.6 0-12.4 2.2-17.3 9.2h-.2v-7.6h-15.7v58.5h16.4v-33.3c0-8 4.1-13.7 10.7-13.7 5.1 0 10.3 2.8 10.3 11.3v35.7h16.4v-39.7c-.1-11.3-6.5-20.4-20.6-20.4m-119.2 60.1h16.4V80.5h-16.4v85.6zm177.2-11.6c-9.7 0-14.8-8.1-14.8-17.3 0-8.9 4.9-17.3 14.4-17.3 10.3 0 15 8.3 15 17.1 0 9.8-5.3 17.5-14.6 17.5m14-74v35.1h-.2c-5.5-7.2-11.1-9.6-18.6-9.6-16.9 0-27.1 14.5-27.1 30.8s11.1 31 27.3 31c7.5 0 14.4-2.8 19-9.8h.2v8.2H623V80.5h-16.4zM238.4 131c.9-6.6 5.1-12.5 13.7-12.5 7.9 0 12.2 6.8 12.8 12.5h-26.5zm12.8-25c-17.7 0-30 12.1-30 31 0 18.7 12.3 30.8 30 30.8 13.8 0 24.5-6.3 28.5-18.2l-15.9-1.3c-2.3 4.6-6.7 7-11.7 7-8.8 0-13-6.8-13.7-13.7h42.8V137c0-18.9-12.3-31-30-31m226.9 40c0 7.1-8.3 9.9-13.4 9.9-5.5 0-10.2-1.6-10.2-6.8 0-4.2 2.5-6.5 10-7.2l13.7-1.3v5.4zm15.8-21.1c0-13.4-12.1-18.9-26.5-18.9-20.5 0-26.9 11.5-27.5 20.5h15.7c.3-5.2 4.3-8.7 11.1-8.7 7.2 0 11.5 3.4 11.5 10.4v2.7l-15.1.9c-22.9 1.4-24.9 11.7-24.9 18 0 13.3 11.3 17.9 20.5 17.9 6.8 0 14.6-2 20.1-9.2h.2v7.6h15.8c-.5-2.2-.8-4.2-.8-7.3v-33.9zM203.2 67.4c0 7.1-8.3 9.9-13.4 9.9-5.5 0-10.3-1.6-10.3-6.8 0-4.2 2.5-6.5 10-7.2l13.7-1.3v5.4zm15.7-21c0-13.4-12.1-18.9-26.5-18.9-20.5 0-26.9 11.5-27.5 20.5h15.7c.3-5.2 4.3-8.7 11-8.7 7.2 0 11.5 3.4 11.5 10.4v2.7l-15.1.9c-22.9 1.4-24.9 11.7-24.9 18 0 13.3 11.3 17.9 20.5 17.9 6.8 0 14.6-2.1 20-9.2h.2v7.6h15.8c-.5-2.2-.8-4.2-.8-7.3V46.4zm-189-5c4.3 0 9.1 1.9 9.5 10.1l17.1-.7c-.8-12.4-9.1-23.4-26.5-23.4C12.2 27.4 1.5 40 1.5 58.8c0 18 9.7 30.3 28.8 30.3 15.7 0 23.5-9.3 26-22.2l-16.1-.6c-.9 5.7-4.1 9.6-10.4 9.6-8.5 0-11.3-8.7-11.3-16.4.1-7.4 1.3-18.1 11.4-18.1m48.7-1.1h-.2V29.1H62.6v58.5H79V58.9c0-10.4 6.6-15.5 15-15.5h3.6V27.5h-2.3c-7.6 0-13.6 4.5-16.7 12.8m183.3 47.3h16.4V29.1h-16.4v58.5zm8.2-67.2c5.2 0 9.6-4.7 9.6-9.7 0-5.2-4.7-9.5-9.6-9.5-5.5 0-9.6 4.9-9.6 9.7 0 4.6 4.1 9.5 9.6 9.5M230.9 73c0 12.6 6.5 15.3 17.2 15.3 2.6 0 5.2-.3 7.9-.7V74.7c-1 .2-1.9.3-3.3.3-4.2 0-5.4-1.3-5.4-3.9V41.6h8.7V29.1h-8.7V12.2h-16.4v16.9h-7.5v12.5h7.5V73zM115.7 52.5c.9-6.6 5.1-12.5 13.7-12.5 7.9 0 12.2 6.8 12.8 12.5h-26.5zm12.9-25c-17.7 0-30 12.1-30 31 0 18.7 12.3 30.8 30 30.8 13.8 0 24.5-6.3 28.5-18.2l-15.9-1.2c-2.3 4.6-6.7 6.9-11.7 6.9-8.8 0-13-6.8-13.7-13.7h42.8v-4.6c-.1-19-12.4-31-30-31" fill="#7f3f98"/></svg>