<?xml version="1.0" encoding="UTF-8"?> <svg xmlns="http://www.w3.org/2000/svg" width="30" height="31"><g fill="none" fill-rule="evenodd"><g fill-rule="nonzero"><circle fill="#D60A01" cx="15" cy="15.5" r="15"></circle><path d="M19.874 17.35a3.398 3.398 0 0 0-.304-.726 2.464 2.464 0 0 0-.511-.602c-.19-.17-.389-.33-.598-.475a5.857 5.857 0 0 0-.729-.403c-.308-.149-.553-.26-.732-.332a32.33 32.33 0 0 0-.782-.299 15.03 15.03 0 0 1-1.259-.517 3.418 3.418 0 0 1-.54-.294 4.23 4.23 0 0 1-.38-.313 1.068 1.068 0 0 1-.285-.393 1.237 1.237 0 0 1-.082-.456c0-.43.192-.78.578-1.053.386-.272.885-.408 1.495-.408.27 0 .546.037.825.11.454.113.888.299 1.283.55.177.11.302.194.376.251.074.057.121.095.14.114.084.063.17.085.26.066.097-.006.171-.057.223-.151l.781-1.385c.077-.127.061-.247-.048-.361a3.279 3.279 0 0 0-.145-.133 5.005 5.005 0 0 0-.376-.275 4.674 4.674 0 0 0-.613-.356 6.257 6.257 0 0 0-.84-.317 5.455 5.455 0 0 0-1.065-.219v-1.67A.294.294 0 0 0 16.237 7h-1.302a.299.299 0 0 0-.217.09.29.29 0 0 0-.091.214V9.01c-1.01.19-1.83.614-2.46 1.271-.63.658-.945 1.423-.945 2.296 0 .26.027.506.082.74.054.234.122.444.202.63.08.188.195.37.343.551.147.18.287.335.42.465.131.13.303.264.515.403.212.14.394.252.545.337.151.085.352.183.603.294.25.11.449.194.593.251l.594.237c.347.133.604.236.771.309.168.072.38.174.637.303.257.13.445.248.564.356.12.108.227.24.323.398a.95.95 0 0 1 .145.503c0 .5-.197.886-.593 1.157a2.366 2.366 0 0 1-1.374.408c-.238 0-.476-.025-.714-.075-.836-.165-1.617-.56-2.344-1.186l-.02-.02a.241.241 0 0 0-.23-.084c-.104.012-.178.05-.223.114l-.993 1.28c-.097.127-.09.256.02.389.031.038.088.095.168.17.08.077.23.195.449.357.218.161.456.313.713.455.258.143.584.283.98.422.395.14.805.237 1.23.294v1.66c0 .083.03.154.09.214.062.06.134.09.218.09h1.302a.293.293 0 0 0 .309-.304v-1.66c1.022-.164 1.853-.596 2.493-1.295.64-.699.96-1.532.96-2.5a3.07 3.07 0 0 0-.126-.891v.001z" fill="#141313"></path></g><path d="M0 0h30v31H0z"></path></g></svg> 