<svg width="15" height="15" xmlns="http://www.w3.org/2000/svg"><path d="M13.5 0h-12C.675 0 0 .675 0 1.5v12c0 .825.675 1.5 1.5 1.5h12c.825 0 1.5-.675 1.5-1.5v-12c0-.825-.675-1.5-1.5-1.5zm-6 4.5c1.65 0 3 1.35 3 3s-1.35 3-3 3-3-1.35-3-3 1.35-3 3-3zm-5.625 9c-.225 0-.375-.15-.375-.375V6.75h1.575C3 6.975 3 7.275 3 7.5 3 9.975 5.025 12 7.5 12S12 9.975 12 7.5c0-.225 0-.525-.075-.75H13.5v6.375c0 .225-.15.375-.375.375H1.875zM13.5 3.375c0 .225-.15.375-.375.375h-1.5c-.225 0-.375-.15-.375-.375v-1.5c0-.225.15-.375.375-.375h1.5c.225 0 .375.15.375.375v1.5z" fill="#4A4A4A"/></svg>