<svg xmlns="http://www.w3.org/2000/svg" width="376.33" height="58"><path d="M372.81 3.57c.53 0 .9-.25.9-.68 0-.41-.33-.66-.87-.66h-1.12v1.34zm-1.65-1.87h1.7a1.63 1.63 0 0 1 1.13.4 1 1 0 0 1 .31.74 1.12 1.12 0 0 1-1 1.12l1.17 1.53h-.7l-1.07-1.42h-1v1.44h-.56V1.7zm4.83 2a3.38 3.38 0 1 0-6.75 0 3.38 3.38 0 1 0 6.75 0m-7.09 0a3.72 3.72 0 0 1 7.43 0 3.73 3.73 0 0 1-3.73 3.72 3.69 3.69 0 0 1-3.7-3.69M11.29 41.1c0 6.73-.67 8-11.29 14.84L.25 58c14.32-6.28 17.36-10.92 17.36-17.72V2h-6.34v39.13zM57.6 2h-6.48l1.18 3-17 44.27h3.73l6.41-17.9h17l6.89 17.9h6.7zM46.5 28.67l7.14-19.49h.26l7.49 19.49zM131 39h-.25L116.67 2h-1.82l-13 37.15h-.23L91.07 2h-6.41l14.25 47.31h2.45L114.66 13h.25l13.64 36.31h2.53L144.92 2h-4L131 39zm49.63-15.41v-.16c6.28-1.17 11.56-4.61 11.56-10.56C192.19 5.65 185 2 177 2h-14.26v47.33h13.2c12.34 0 18.64-5.87 18.64-13.41 0-6.54-5.71-11-14-12.33M169.12 5.23a53.92 53.92 0 0 1 7.15-.57c5.8 0 9.37 2.59 9.37 8.88 0 6-4.08 9.13-11.16 9.13h-5.36zm7.07 41.41a61.69 61.69 0 0 1-7.07-.49V25.27h6c8.51 0 12.6 3.76 12.6 11.31 0 6.05-3.73 10.06-11.57 10.06m54.64-45.17c12.63 0 23.15 10.7 23.15 24.22s-10.27 24.13-22.65 24.13-22.89-10.54-22.89-24.13 10.26-24.22 22.39-24.22M247 27c0-14.68-8-23-16.59-23-8.25 0-15.16 7-15.16 20.33 0 14.67 7.92 22.8 16.52 22.8S247 40.19 247 27m23.58 22.31h3.87V11.5h.29l30.48 37.81h2V2h-3.87v35.21h-.18L274.11 2h-7.17l3.64 4.63v42.68zm57.42 0h30.71l.24-2.88-24.68.57V26.18h18.53v-2.73h-18.53V4.29l23.15.71V2H328v47.31z" fill="#1f1f1f"/></svg>