<?xml version="1.0" encoding="UTF-8"?>
<svg width="45px" height="45px" viewBox="0 0 726 724" version="1.1" xmlns="http://www.w3.org/2000/svg" xmlns:xlink="http://www.w3.org/1999/xlink">
    <!-- Generator: Sketch 52.4 (67378) - http://www.bohemiancoding.com/sketch -->
    <title>Combined Shape</title>
    <desc>Created with Sketch.</desc>
    <g id="Page-1" stroke="none" stroke-width="1" fill="none" fill-rule="evenodd">
        <g id="final_black_kalexiko-(1)-copy" fill="#D60A02">
            <g id="Group-3">
                <path d="M369.038294,351.006207 L527.522877,148.590171 C530.365783,144.966823 528.982967,142 524.423744,142 L210.268423,142 C208.770054,142 207.362059,142.411667 206.147345,143.129867 C203.795004,140.890494 202,142.028403 202,146.112714 L202,551.564769 L202,555.896785 C202,559.965297 203.793973,561.108318 206.153569,558.875637 C207.365144,559.590267 208.768261,560 210.26045,560 L524.417838,560 C528.964949,560 530.372194,557.041436 527.529233,553.422182 L369.038294,351.006207 Z M725.7328,362.124263 C725.7328,561.98584 563.264,724 362.86432,724 C162.46048,724 8.52651283e-13,561.98584 8.52651283e-13,362.124263 C8.52651283e-13,162.262686 162.46048,0.23608 362.86432,0.23608 C563.264,0.23608 725.7328,162.262686 725.7328,362.124263 Z" id="Combined-Shape"></path>
            </g>
        </g>
    </g>
</svg>