<svg xmlns="http://www.w3.org/2000/svg" width="319.17" height="58"><path d="M4 13.44V19h.13a9.51 9.51 0 0 1 4-4.73 11.84 11.84 0 0 1 6.33-1.79 16 16 0 0 1 5.67.88 9 9 0 0 1 3.67 2.48 9.27 9.27 0 0 1 1.94 3.92 21.85 21.85 0 0 1 .57 5.2v20.85h-3.94V25.63a18.85 18.85 0 0 0-.37-3.86 8.11 8.11 0 0 0-1.32-3.1 6.42 6.42 0 0 0-2.54-2.06 9.17 9.17 0 0 0-4-.76 10.19 10.19 0 0 0-4.24.85A9.12 9.12 0 0 0 6.77 19a10.76 10.76 0 0 0-2 3.51A14 14 0 0 0 4 26.94v18.87H0V13.44h4m30.6 5.05a9.41 9.41 0 0 1 2.72-3.4 11.56 11.56 0 0 1 4-1.95 19.6 19.6 0 0 1 5.14-.64 22 22 0 0 1 4.26.42 10.28 10.28 0 0 1 3.83 1.53 8.41 8.41 0 0 1 2.76 3.17 11.45 11.45 0 0 1 1.07 5.3V40.1a2.08 2.08 0 0 0 2.32 2.39 3 3 0 0 0 1.3-.25v3.32c-.46.09-.87.15-1.22.19a12.58 12.58 0 0 1-1.35.06A5.86 5.86 0 0 1 57 45.4a3.3 3.3 0 0 1-1.43-1.16 4.5 4.5 0 0 1-.66-1.79 14.61 14.61 0 0 1-.16-2.29h-.12A24.35 24.35 0 0 1 52.47 43 10.27 10.27 0 0 1 50 45a11 11 0 0 1-3 1.25 16.93 16.93 0 0 1-4.1.44 16.47 16.47 0 0 1-4.24-.53 9.48 9.48 0 0 1-3.44-1.7 8.09 8.09 0 0 1-2.32-3 9.85 9.85 0 0 1-.9-4.18A8.36 8.36 0 0 1 33.52 32a9.51 9.51 0 0 1 4-2.92 23.48 23.48 0 0 1 5.58-1.41q3.09-.4 6.29-.78a20.59 20.59 0 0 0 2.2-.32 3.75 3.75 0 0 0 1.56-.65 3.21 3.21 0 0 0 1-1.29 5.52 5.52 0 0 0 .34-2.13 7.21 7.21 0 0 0-.66-3.29 5.26 5.26 0 0 0-1.81-2 7.36 7.36 0 0 0-2.69-1 17.9 17.9 0 0 0-3.33-.36 9.9 9.9 0 0 0-6.12 1.79q-2.39 1.78-2.5 5.73h-4a13 13 0 0 1 1.19-4.88m19.72 9.62a2.26 2.26 0 0 1-1.44 1 14.08 14.08 0 0 1-1.88.44c-1.68.29-3.41.55-5.18.78a28.55 28.55 0 0 0-4.87 1 9.45 9.45 0 0 0-3.6 2A4.69 4.69 0 0 0 35.93 37a5.7 5.7 0 0 0 .6 2.66 6.38 6.38 0 0 0 1.6 2A7.11 7.11 0 0 0 40.45 43a8.57 8.57 0 0 0 2.7.43 13.59 13.59 0 0 0 4.33-.69 10.5 10.5 0 0 0 3.61-2 9.54 9.54 0 0 0 3.36-7.46v-5.17zm24.87-14.66v3.35h-6.57v21.78a7.13 7.13 0 0 0 .53 3c.36.74 1.24 1.14 2.66 1.22a29.46 29.46 0 0 0 3.38-.19V46c-.59 0-1.17 0-1.75.06s-1.17.07-1.76.07q-4 0-5.52-1.54c-1-1-1.55-2.91-1.51-5.67V16.8H63v-3.35h5.64V3.72h4v9.73h6.57m5.66-12.38h4V7.4h-4zm0 12.39h4V45.8h-4zm31.8.42a14.53 14.53 0 0 1 4.79 3.7A16 16 0 0 1 124.4 23a22.17 22.17 0 0 1 0 13.23 15.83 15.83 0 0 1-2.94 5.43 14.07 14.07 0 0 1-4.79 3.67 16.56 16.56 0 0 1-13.1 0 14 14 0 0 1-4.8-3.67 16.19 16.19 0 0 1-3-5.43 22.6 22.6 0 0 1 0-13.23 16 16 0 0 1 3-5.43 14.57 14.57 0 0 1 4.8-3.7 16.23 16.23 0 0 1 13.1 0M105.18 17a10.87 10.87 0 0 0-3.53 3.14 14.11 14.11 0 0 0-2.13 4.41 18.24 18.24 0 0 0 0 10.08 14.11 14.11 0 0 0 2.13 4.41 10.87 10.87 0 0 0 3.53 3.14 10.91 10.91 0 0 0 9.87 0 10.87 10.87 0 0 0 3.53-3.14 14.09 14.09 0 0 0 2.12-4.41 18 18 0 0 0 0-10.08 14.09 14.09 0 0 0-2.12-4.41 10.76 10.76 0 0 0-3.53-3.14 10.83 10.83 0 0 0-9.87 0zm29.99-3.56V19h.13a9.48 9.48 0 0 1 4-4.73 11.78 11.78 0 0 1 6.32-1.79 16 16 0 0 1 5.67.88 9 9 0 0 1 3.71 2.5 9.27 9.27 0 0 1 1.94 3.92 21.85 21.85 0 0 1 .57 5.2v20.83h-3.92V25.63a18.85 18.85 0 0 0-.38-3.86 8.11 8.11 0 0 0-1.32-3.1 6.35 6.35 0 0 0-2.54-2.06 9.17 9.17 0 0 0-4-.76 10.19 10.19 0 0 0-4.24.85A9.21 9.21 0 0 0 138 19a10.61 10.61 0 0 0-2 3.51 14 14 0 0 0-.79 4.41v18.89h-4V13.44h4m30.58 5.05a9.43 9.43 0 0 1 2.73-3.4 11.59 11.59 0 0 1 4-1.95 19.6 19.6 0 0 1 5.14-.64 22 22 0 0 1 4.27.42 10.3 10.3 0 0 1 3.82 1.53 8.41 8.41 0 0 1 2.76 3.17 11.33 11.33 0 0 1 1.07 5.3V40.1a2.09 2.09 0 0 0 2.32 2.39 3 3 0 0 0 1.26-.25v3.32c-.46.09-.87.15-1.23.19a12.32 12.32 0 0 1-1.35.06 5.89 5.89 0 0 1-2.42-.41 3.28 3.28 0 0 1-1.42-1.16 4.36 4.36 0 0 1-.67-1.79 16 16 0 0 1-.15-2.29h-.13a25.5 25.5 0 0 1-2.12 2.84 10.68 10.68 0 0 1-2.44 2 11.06 11.06 0 0 1-3.08 1.26 16.88 16.88 0 0 1-4.1.44 16.45 16.45 0 0 1-4.23-.53 9.45 9.45 0 0 1-3.45-1.7 8.09 8.09 0 0 1-2.32-3 9.85 9.85 0 0 1-.84-4.23 8.36 8.36 0 0 1 1.5-5.29 9.51 9.51 0 0 1 4-2.92 23.48 23.48 0 0 1 5.58-1.41q3.09-.4 6.29-.78a20.59 20.59 0 0 0 2.2-.32 3.75 3.75 0 0 0 1.56-.65 3.21 3.21 0 0 0 1-1.29 5.52 5.52 0 0 0 .34-2.13 7.21 7.21 0 0 0-.68-3.25 5.26 5.26 0 0 0-1.81-2 7.29 7.29 0 0 0-2.69-1 17.9 17.9 0 0 0-3.28-.28 9.9 9.9 0 0 0-6.12 1.79q-2.39 1.78-2.5 5.73h-4a13 13 0 0 1 1.19-4.88m19.72 9.62a2.26 2.26 0 0 1-1.44 1 14.08 14.08 0 0 1-1.88.44c-1.68.29-3.4.55-5.18.78a28.55 28.55 0 0 0-4.87 1 9.45 9.45 0 0 0-3.6 2 4.65 4.65 0 0 0-1.41 3.6 5.69 5.69 0 0 0 .59 2.66 6.38 6.38 0 0 0 1.6 2 7.11 7.11 0 0 0 2.32 1.34 8.57 8.57 0 0 0 2.7.43 13.59 13.59 0 0 0 4.33-.69 10.5 10.5 0 0 0 3.61-2 9.7 9.7 0 0 0 2.45-3.2 9.59 9.59 0 0 0 .91-4.26v-5.17zm12-27.11h3.98v44.74h-3.98zm41.83 47.09a10.81 10.81 0 0 1-2.29 4.67A13.7 13.7 0 0 1 232 56.5a21.92 21.92 0 0 1-8.9 1.5 20.58 20.58 0 0 1-4.86-.6 15.41 15.41 0 0 1-4.51-1.85 11.24 11.24 0 0 1-3.39-3.23 9.42 9.42 0 0 1-1.53-4.74h8.84a5.12 5.12 0 0 0 2.44 3.5 8.63 8.63 0 0 0 4.2 1q3.77 0 5.49-2.25a8.91 8.91 0 0 0 1.66-5.7v-4.28h-.13a8.78 8.78 0 0 1-4.11 3.79 13.33 13.33 0 0 1-5.61 1.22 14.21 14.21 0 0 1-6.26-1.28 11.88 11.88 0 0 1-4.33-3.52 14.67 14.67 0 0 1-2.48-5.2 24.77 24.77 0 0 1-.78-6.3 20.37 20.37 0 0 1 .9-6 15.9 15.9 0 0 1 2.67-5.14 12.66 12.66 0 0 1 4.36-3.54 13 13 0 0 1 6-1.32 12.59 12.59 0 0 1 5.61 1.19 9.71 9.71 0 0 1 4.05 4h.12v-4.38h8.47v30.34a20.72 20.72 0 0 1-.53 4.45M227.15 37.4a7 7 0 0 0 2.38-2 9 9 0 0 0 1.41-2.86 12 12 0 0 0 .47-3.36 18.38 18.38 0 0 0-.38-3.79 9.31 9.31 0 0 0-1.25-3.17 6.52 6.52 0 0 0-2.32-2.2 7.33 7.33 0 0 0-3.63-.82 6.43 6.43 0 0 0-3.23.76 6.86 6.86 0 0 0-2.26 2 8.69 8.69 0 0 0-1.31 3 14.7 14.7 0 0 0-.41 3.49 17.71 17.71 0 0 0 .35 3.48 9.44 9.44 0 0 0 1.18 3.07 7.08 7.08 0 0 0 2.23 2.26 6.27 6.27 0 0 0 3.45.88 7 7 0 0 0 3.32-.74zm28.34-24.01v6h.13a11.24 11.24 0 0 1 4.14-5 11.6 11.6 0 0 1 2.95-1.39 10.44 10.44 0 0 1 3.29-.5 6.94 6.94 0 0 1 1.94.32v8.28a18.81 18.81 0 0 0-3.2-.32 9.7 9.7 0 0 0-4.14.81 7.21 7.21 0 0 0-2.72 2.23 9 9 0 0 0-1.48 3.3 18 18 0 0 0-.43 4.07V45.8H247V13.39h8.46m16.14.01h8.91v32.41h-8.91zm38.98 28.28a9.24 9.24 0 0 1-4.11 3.79 13.69 13.69 0 0 1-5.74 1.16 13.86 13.86 0 0 1-6.39-1.41 12.84 12.84 0 0 1-4.55-3.83 17.26 17.26 0 0 1-2.69-5.55 23.18 23.18 0 0 1-.91-6.52 21.79 21.79 0 0 1 .91-6.32 16.37 16.37 0 0 1 2.69-5.36 13.12 13.12 0 0 1 10.75-5.15 12.84 12.84 0 0 1 5.46 1.24 9.49 9.49 0 0 1 4.1 3.6h.13V1.07h8.91v44.74h-8.44v-4.13h-.12m-.38-16a9.6 9.6 0 0 0-1.28-3.27 7.34 7.34 0 0 0-2.35-2.29 6.89 6.89 0 0 0-3.64-.88 7.15 7.15 0 0 0-3.69.88 7 7 0 0 0-2.42 2.32 10.27 10.27 0 0 0-1.31 3.3 17.43 17.43 0 0 0-.41 3.86 16.11 16.11 0 0 0 .44 3.77 10.13 10.13 0 0 0 1.46 3.32 7.83 7.83 0 0 0 2.44 2.39 6.59 6.59 0 0 0 3.54.91 7 7 0 0 0 3.67-.88 6.7 6.7 0 0 0 2.35-2.35 10.74 10.74 0 0 0 1.25-3.37 19.82 19.82 0 0 0 .38-3.89 19.44 19.44 0 0 0-.43-3.86zM276.07 0l-5.3 5.3 5.3 5.3 5.31-5.3-5.31-5.3" fill="#0079c1"/></svg>