<svg width="19" height="15" xmlns="http://www.w3.org/2000/svg"><path d="M18.5 1.776c-.67.3-1.383.5-2.126.597A3.748 3.748 0 0 0 17.997.282a7.26 7.26 0 0 1-2.34.916A3.655 3.655 0 0 0 12.962 0c-2.043 0-3.688 1.7-3.688 3.786 0 .3.025.588.085.863C6.292 4.495 3.577 2.987 1.753.69a3.885 3.885 0 0 0-.505 1.913c0 1.31.658 2.473 1.64 3.145a3.575 3.575 0 0 1-1.668-.466v.042c0 1.84 1.28 3.367 2.957 3.719-.3.084-.628.124-.968.124-.236 0-.475-.014-.699-.064.479 1.499 1.835 2.6 3.449 2.636A7.298 7.298 0 0 1 .5 13.302 10.201 10.201 0 0 0 6.161 15c6.79 0 10.503-5.77 10.503-10.77 0-.167-.006-.329-.014-.49a7.469 7.469 0 0 0 1.85-1.964z" fill="#4A4A4A" fill-rule="evenodd"/></svg>